<?xml version="1.0" encoding="utf-8"?>
<!-- Generator: Adobe Illustrator 16.0.0, SVG Export Plug-In . SVG Version: 6.00 Build 0)  -->
<!DOCTYPE svg PUBLIC "-//W3C//DTD SVG 1.1//EN" "http://www.w3.org/Graphics/SVG/1.1/DTD/svg11.dtd">
<svg version="1.1" id="Layer_1" xmlns="http://www.w3.org/2000/svg" xmlns:xlink="http://www.w3.org/1999/xlink" x="0px" y="0px"
	 width="193.137px" height="51.943px" viewBox="0 0 193.137 51.943" enable-background="new 0 0 193.137 51.943"
	 xml:space="preserve">
<g>
	<path fill="#CCCCCC" d="M12.175,38.141c-3.604,0-6.061-1.529-8.08-3.822v17.466L0,48.078v-39.2h4.096v3.494
		c2.02-2.185,4.75-4.096,8.626-4.096c5.731,0,10.264,4.368,10.264,14.469C22.985,32.9,18.181,38.141,12.175,38.141z M11.684,11.826
		c-3.058,0-5.569,1.638-7.589,4.148v14.304c1.583,2.402,4.367,4.313,7.753,4.313c4.75,0,7.097-4.095,7.097-11.792
		C18.945,15.593,16.215,11.826,11.684,11.826z"/>
	<path fill="#CCCCCC" d="M48.314,37.541v-3.494c-1.639,2.402-4.313,4.095-7.917,4.095c-6.061,0-10.045-3.549-10.045-11.793V8.877
		h4.095v16.761c0,6.169,2.184,8.954,6.77,8.954c3.985,0,7.098-2.675,7.098-8.954V8.877h4.095V37.54L48.314,37.541L48.314,37.541z"/>
	<path fill="#CCCCCC" d="M86.745,38.141c-3.604,0-6.061-1.529-8.081-3.822v3.222h-4.095V0.033l4.095,3.707v8.631
		c2.021-2.185,4.75-4.096,8.626-4.096c5.732,0,10.265,4.368,10.265,14.469C97.555,32.9,92.75,38.141,86.745,38.141z M86.253,11.826
		c-3.057,0-5.568,1.638-7.589,4.148v14.304c1.583,2.402,4.368,4.313,7.753,4.313c4.75,0,7.098-4.095,7.098-11.792
		C93.514,15.593,90.785,11.826,86.253,11.826z"/>
	<path fill="#CCCCCC" d="M119.061,37.541V8.877l4.094,2.399V37.54L119.061,37.541L119.061,37.541z"/>
	<path fill="#CCCCCC" d="M153.506,38.141c-3.931,0-7.369-1.474-10.1-3.658l2.402-3.002c2.293,2.021,4.968,3.167,7.807,3.167
		c3.931,0,5.787-1.638,5.787-4.422c0-2.348-1.692-3.658-6.771-5.842c-5.731-2.457-8.135-4.204-8.135-8.79
		c0-4.368,3.768-7.316,8.954-7.316c3.931,0,6.988,1.257,9.172,3.059l-2.293,3.003c-2.238-1.747-4.095-2.566-7.151-2.566
		c-3.003,0-4.75,1.475-4.75,3.55c0,2.401,1.474,3.385,6.332,5.568c5.405,2.457,8.572,4.04,8.572,9.172
		C163.334,35.684,158.475,38.141,153.506,38.141z"/>
	<g>
		<path fill="#CCCCCC" d="M183.071,8.277c-3.604,0-5.937,1.693-7.937,4.096V3.74l-4-3.707v37.91h4V20.781
			c0-6.279,3.18-8.954,7.164-8.954c4.586,0,6.836,2.784,6.836,8.954v17.164h-0.072l4.072,3.312V20.07
			C193.136,11.826,189.132,8.277,183.071,8.277z"/>
	</g>
</g>
<g>
	<polygon fill="#F0F5DC" points="131.137,38.777 135.266,41.136 135.249,36.365 135.249,36.361 131.136,34 131.136,34.001 	"/>
</g>
<g>
	<polygon fill="#F0F5DC" points="61.631,38.777 65.761,41.136 65.743,36.365 65.743,36.361 61.63,34 61.63,34.001 	"/>
</g>
<g>
	<polygon fill="#F0F5DC" points="119.072,4.777 123.201,7.136 123.184,2.365 123.184,2.361 119.071,0 119.071,0.001 	"/>
</g>
<g>
	<polygon fill="#CCCCCC" points="105.136,1.476 105.136,37.944 105.375,37.944 109.136,37.944 109.136,3.761 105.317,1.579 	"/>
</g>
</svg>
